<svg xmlns="http://www.w3.org/2000/svg" xmlns:xlink="http://www.w3.org/1999/xlink" xml:space="preserve" id="Layer_1" x="0" y="0" style="enable-background:new 0 0 1723.5 3075.6" version="1.1" viewBox="0 0 1723.5 3075.6">
  <style>.st43{fill:#fff}</style>
  <defs>
    <path id="SVGID_1_" d="M0 3075.6V0h1723.5v3075.6" />
  </defs>
  <clipPath id="SVGID_00000172441829166312431850000012311716543339851145_">
    <use xlink:href="#SVGID_1_" style="overflow:visible" />
  </clipPath>
  <path d="M1723.5 3075.6V0H0v3075.6" style="clip-path:url(#SVGID_00000172441829166312431850000012311716543339851145_);fill:#d02027" />
  <g style="clip-path:url(#SVGID_00000172441829166312431850000012311716543339851145_)">
    <defs>
      <path id="SVGID_00000183944354693444404170000012122661193696643988_" d="M1723.5 3075.6V0H0v3075.6" />
    </defs>
    <clipPath id="SVGID_00000137850478428359447910000016852414861031252897_">
      <use xlink:href="#SVGID_00000183944354693444404170000012122661193696643988_" style="overflow:visible" />
    </clipPath>
    <path d="M683 2767.3h346.8c.4 0 .7-.3.7-.7 0-.4-.3-.7-.7-.7H920.6v-.2l-2.5-9 98.4-7.9c.4 0 .7-.4.6-.8 0-.4-.4-.7-.8-.7l-98.7 7.9-2.6-9.3 88.1-14.9c.4-.1.6-.4.6-.8-.1-.4-.4-.7-.8-.6l-88.2 14.9-2.8-10.2 78-21.1c.4-.1.6-.5.5-.9-.1-.4-.5-.6-.9-.5l-78 21.1-3.1-11.1 68.1-26.4c.4-.1.5-.6.4-.9-.1-.4-.5-.6-.9-.4l-68 26.4-3.4-12.2 58.6-30.6c.3-.2.5-.6.3-1-.2-.3-.6-.5-1-.3l-58.3 30.5-3.7-13.4 49.4-33.6c.3-.2.4-.7.2-1-.2-.3-.7-.4-1-.2l-49 33.3-4.1-14.8 40.6-35.2c.3-.3.3-.7.1-1-.3-.3-.7-.3-1-.1l-40 34.8-4.5-16.3 32.2-35.2c.3-.3.2-.7 0-1-.3-.3-.7-.3-1 0l-31.6 34.5-5-18.1 24.3-33.3c.2-.3.2-.8-.1-1-.3-.2-.8-.2-1 .1l-23.6 32.4-5.5-20.2 17-29.2c.2-.3.1-.8-.2-1-.3-.2-.8-.1-1 .3l-16.3 28-1.1-4.2-5-18.4 10.4-22.6c.2-.4 0-.8-.3-1-.4-.2-.8 0-.9.3l-9.7 21-7-25.4 4.6-12.8c.1-.4-.1-.8-.4-.9-.4-.1-.8.1-.9.4l-3.9 11-7.9-28.7c0-.1-.1-.3-.2-.3l-.1-.1c-.1-.1-.2-.1-.4-.1h-.1c-.3 0-.7.2-.8.5l-7.9 28.7-3.9-11c-.1-.4-.5-.6-.9-.4-.4.1-.6.5-.4.9l4.6 12.8-7 25.4-9.7-21c-.2-.4-.6-.5-.9-.3-.4.2-.5.6-.3 1l10.4 22.6-6.2 22.6-16.3-28c-.2-.3-.6-.4-1-.3-.3.2-.4.6-.2 1l17 29.2-5.5 20.2-23.6-32.4c-.2-.3-.7-.4-1-.1-.3.2-.4.7-.1 1l24.3 33.3-5 18.1-31.6-34.5c-.3-.3-.7-.3-1 0-.3.3-.3.7 0 1l32.2 35.2-4.5 16.3-40-34.8c-.3-.3-.7-.2-1 .1-.3.3-.2.7.1 1l40.5 35.2-4.1 14.8-49-33.3c-.3-.2-.8-.1-1 .2-.2.3-.1.8.2 1l49.4 33.6-3.7 13.4-58.3-30.5c-.3-.2-.8 0-1 .3-.2.3 0 .8.3 1l58.6 30.6-3.4 12.2-68-26.4c-.4-.1-.8 0-.9.4-.1.4 0 .8.4.9l68.1 26.4-3.1 11.1-78-21.1c-.4-.1-.8.1-.9.5-.1.4.1.8.5.9l78 21.1-2.8 10.2-88.2-14.9c-.4-.1-.7.2-.8.6-.1.4.2.8.6.8l88.1 14.9-2.6 9.3-98.7-7.9c-.4 0-.7.3-.8.7 0 .4.3.7.6.8l98.4 7.9-2.5 9v.1H683c-.4 0-.7.3-.7.7 0 .5.3.8.7.8m125.3-10.9 10.1-6.9 3.4.6-12.2 6.4-1.3-.1zm-1.1 1.3-3.8 2 3-2h.8zm12.9-9.4 9.1-6.2 5.1 1.4-10.5 5.5-3.7-.7zm10.7-7.2 8.3-5.7 6.2 2.4-9.1 4.7-5.4-1.4zm9.7-6.7 7.6-5.2 6.7 3.5-7.9 4.1-6.4-2.4zm8.9-6 6.9-4.7 6.9 4.7-6.9 3.6-6.9-3.6zm15.3.9 7.6 5.2-6.4 2.5-7.9-4.1 6.7-3.6zm9 6.1 8.3 5.7-5.4 1.5-9.1-4.7 6.2-2.5zm9.8 6.7 9.1 6.2-3.8.6-10.5-5.5 5.2-1.3zm10.9 7.4 10.1 6.9-1.3.1-12.2-6.4 3.4-.6zm11.9 8.1 3 2-3.8-2h.8zm2.3-.1h.3l1.3 1.1-1.6-1.1zm-1.9-1.3-10.3-7 2.5-.4 8.5 7.4h-.7zm-12-8.2-9.4-6.4 4.1-1.1 8.1 7-2.8.5zm-10.9-7.4-8.5-5.8 5.2-2 7.6 6.6-4.3 1.2zm-9.9-6.8-7.8-5.3 5.9-3.1 7.3 6.3-5.4 2.1zm-9.1-6.2-7.1-4.8 6.4-4.3 6.9 6-6.2 3.1zm-8.4-5.7-6.5-4.4 6.5-5.7 6.5 5.7-6.5 4.4zm-1.3.9-7.1 4.8-6.1-3.2 6.9-6 6.3 4.4zm-8.4 5.7-7.8 5.3-5.4-2.1 7.3-6.3 5.9 3.1zm-9.2 6.3-8.5 5.8-4.3-1.2 7.6-6.6 5.2 2zm-10.1 6.8-9.3 6.4-2.8-.5 8.1-7 4 1.1zm-11 7.6-10.3 7-.7-.1 8.5-7.4 2.5.5zm-12.2 8.3-1.6 1.1 1.3-1.1h.3zm5.7.4 1.5.1-6.9 2.7 5.4-2.8zm2.3-1.2 11.9-6.2 4.7.8-14.4 5.6-2.2-.2zm14-7.3 10.2-5.3 6.5 1.8-11.4 4.4-5.3-.9zm12-6.3 8.8-4.6 7.4 2.9-9.3 3.6-6.9-1.9zm10.5-5.5 7.7-4 7.7 4-7.7 3-7.7-3zm17 .9 8.8 4.6-6.9 1.9-9.3-3.6 7.4-2.9zm10.7 5.6 10.2 5.3-5.2.9-11.4-4.4 6.4-1.8zm12.2 6.4 11.9 6.2-2.2.2-14.4-5.6 4.7-.8zm14.3 7.4 5.3 2.8-6.9-2.7 1.6-.1zm8.1-.5-.1-.1.1.1zm-1.6-1.4-8.7-7.5 1.8-.3 7.2 7.8h-.3zm-10.1-8.8-8.2-7.1 3.3-.9 7 7.7-2.1.3zm-9.5-8.2-7.8-6.8 4.4-1.7 6.9 7.5-3.5 1zm-9-7.9-7.4-6.4 5.3-2.7 6.8 7.4-4.7 1.7zm-8.6-7.4-7-6.1 5.8-4 6.6 7.2-5.4 2.9zm-8.1-7-6.6-5.8 6.2-5.3 6.4 7-6 4.1zm-7.7-6.7-6.3-5.5 6.3-6.9 6.3 6.9-6.3 5.5zm-1.1.9-6.6 5.8-6-4.1 6.4-7.1 6.2 5.4zm-7.8 6.7-7 6.1-5.4-2.8 6.6-7.2 5.8 3.9zm-8.1 7.1-7.4 6.4-4.6-1.8 6.7-7.4 5.3 2.8zm-8.6 7.5-7.8 6.8-3.5-1 6.9-7.5 4.4 1.7zm-9.1 7.9-8.2 7.1-2.1-.4 7-7.7 3.3 1zm-9.7 8.3-8.7 7.5h-.3l7.2-7.8 1.8.3zm-10.1 8.9-.1.1.1-.1zm12.8 1 2.9.2-11.8 3.2 8.9-3.4zm3-1.2 13.8-5.4 6.8 1.2-16.7 4.5-3.9-.3zm16.5-6.4 11-4.3 8.5 2.3-12 3.2-7.5-1.2zm13.2-5.1 8.9-3.5 8.9 3.5-8.9 2.4-8.9-2.4zm20.2.9 11 4.3-7.5 1.3-12-3.2 8.5-2.4zm13.6 5.2 13.8 5.4-4 .3-16.7-4.5 6.9-1.2zm16.9 6.6 8.9 3.4-11.8-3.2 2.9-.2zm13.4-2.5-7.3-8 1.4-.2 5.9 8.2zm-8.4-9.2-7.1-7.8 2.7-.7 6 8.3-1.6.2zm-8.3-9-7-7.7 3.8-1.5 6.1 8.4-2.9.8zm-8-8.8-6.9-7.5 4.7-2.4 6.1 8.4-3.9 1.5zm-7.9-8.6-6.7-7.3 5.3-3.6 6.2 8.5-4.8 2.4zm-7.6-8.4-6.6-7.2 5.8-5.1 6.2 8.5-5.4 3.8zm-7.6-8.2-6.4-7 6.1-6.7 6.2 8.5-5.9 5.2zm-7.3-8.1-6.2-6.8 6.2-8.5 6.2 8.5-6.2 6.8zm-1 1.1-6.4 7-5.9-5.2 6.2-8.5 6.1 6.7zm-7.3 8-6.6 7.2-5.5-3.7 6.2-8.5 5.9 5zm-7.6 8.3-6.7 7.3-4.8-2.5 6.2-8.5 5.3 3.7zm-7.7 8.4-6.9 7.5-3.9-1.5 6.1-8.4 4.7 2.4zm-7.9 8.6-7 7.7-2.8-.8 6.1-8.4 3.7 1.5zm-8.1 8.9-7.1 7.8-1.6-.3 6-8.3 2.7.8zm-8.3 9-7.3 8 6-8.2 1.3.2zm13.3 11.1 5.9.5-20.5 3.5 14.6-4zm4.1-1.1 15.8-4.3 10.4 1.8-18.6 3.1-7.6-.6zm19.1-5.2 11.3-3.1 11.3 3.1-11.3 1.9-11.3-1.9zm26 .9 15.8 4.3-7.6.6-18.6-3.1 10.4-1.8zm19.9 5.4 14.6 3.9-20.5-3.5 5.9-.4zm16.2-11.6 1-.2 4.3 7.4-5.3-7.2zm-.9-1.2-6.1-8.4 2.2-.6 5.1 8.8-1.2.2zm-7-9.7-6.2-8.5 3.2-1.2 5.3 9.1-2.3.6zm-7.1-9.7-6.2-8.6 4.1-2.2 5.5 9.4-3.4 1.4zm-7.1-9.7-6.3-8.6 4.9-3.3 5.6 9.7-4.2 2.2zm-7.1-9.7-6.3-8.6 5.5-4.8 5.8 10-5 3.4zm-7.1-9.8-6.3-8.7 5.9-6.5 6 10.3-5.6 4.9zm-7.2-9.8-6.3-8.7 6.2-8.5 6.2 10.6-6.1 6.6zm-7.2-9.9-6.3-8.7 6.3-10.9 6.3 10.9-6.3 8.7zm-.9 1.2-6.3 8.7-6-6.6 6.2-10.6 6.1 8.5zm-7.2 9.8-6.3 8.7-5.6-4.9 6-10.3 5.9 6.5zm-7.1 9.8-6.3 8.6-5-3.4 5.8-10 5.5 4.8zm-7.2 9.8-6.3 8.6-4.3-2.2 5.6-9.7 5 3.3zm-7.1 9.8-6.2 8.6-3.4-1.3 5.5-9.4 4.1 2.1zm-7.1 9.7-6.2 8.5-2.3-.6 5.3-9.1 3.2 1.2zm-7.1 9.8-6.1 8.4-1.1-.2 5.1-8.8 2.1.6zm-7.1 9.6-5.2 7.2 4.3-7.4.9.2zm28 12.5 13.8 1.1-38.4 3.1 24.6-4.2zm5.7-1 17-2.9 17.1 2.9-17 1.4-17.1-1.4zm39.9 1 24.6 4.2-38.4-3.1 13.8-1.1zm30.4-12.9.7-.1 2.8 6-3.5-5.9zm-.8-1.3-5.2-8.9 1.7-.5 4.3 9.3-.8.1zm-5.9-10.2-5.4-9.2 2.7-1.1 4.5 9.8-1.8.5zm-6.1-10.5-5.6-9.5 3.7-1.9 4.8 10.3-2.9 1.1zm-6.3-10.7-5.7-9.8 4.5-3 5 10.9-3.8 1.9zm-6.4-11.1-5.9-10.1 5.2-4.5 5.3 11.5-4.6 3.1zm-6.7-11.4-6.1-10.4 5.8-6.3 5.6 12.2-5.3 4.5zm-6.8-11.7-6.2-10.7 6.2-8.5 5.9 12.8-5.9 6.4zm-7-12.1-6.4-11 6.5-11.1 6.2 13.5-6.3 8.6zm-7.2-12.4-6.6-11.3 6.6-14.3 6.6 14.3-6.6 11.3zm-.8 1.4-6.4 11-6.3-8.6 6.2-13.5 6.5 11.1zm-7.2 12.3-6.2 10.7-5.9-6.4 5.9-12.8 6.2 8.5zm-7 12-6.1 10.4-5.3-4.6 5.6-12.2 5.8 6.4zm-6.8 11.7-5.9 10.1-4.6-3.1 5.3-11.5 5.2 4.5zm-6.6 11.4-5.7 9.8-3.8-2 5-10.9 4.5 3.1zm-6.5 11.1-5.6 9.5-2.9-1.1 4.8-10.3 3.7 1.9zm-6.3 10.8-5.4 9.2-1.9-.5 4.5-9.8 2.8 1.1zm-6.1 10.5-5.2 8.9-.8-.1 4.3-9.3 1.7.5zm-5.9 10.2-3.4 5.9 2.8-6 .6.1zm53.2 14.7 46 3.7h-92.1l46.1-3.7zm55.3-15 .4-.1 1.6 4.3-2-4.2zm-.6-1.4-4.3-9.4 1.4-.4 3.5 9.7-.6.1zm-5-10.7-4.6-9.9 2.3-.9 3.7 10.4-1.4.4zm-5.1-11.2-4.8-10.5 3.2-1.7 4 11.2-2.4 1zm-5.5-11.8-5.1-11.1 4.1-2.8 4.4 12.1-3.4 1.8zm-5.7-12.4-5.4-11.7 4.9-4.2 4.7 13.1-4.2 2.8zm-6-13-5.7-12.3 5.6-6.1 5.1 14.1-5 4.3zm-6.3-13.7-6-13 6.2-8.5 5.5 15.3-5.7 6.2zm-6.6-14.5-6.3-13.7 6.6-11.4 6 16.5-6.3 8.6zm-7.1-15.3-6.7-14.5 7-15.1 6.5 18-6.8 11.6zm-7.4-16.1-7-15.3 7-19.6 7 19.6-7 15.3zm-.8 1.7-6.7 14.5-6.7-11.6 6.5-18 6.9 15.1zm-7.4 16-6.3 13.7-6.3-8.6 5.9-16.5 6.7 11.4zm-7 15.2-6 13-5.7-6.2 5.5-15.3 6.2 8.5zm-6.6 14.4-5.7 12.3-5-4.3 5.1-14.1 5.6 6.1zm-6.3 13.7-5.4 11.7-4.2-2.9 4.7-13.1 4.9 4.3zm-6 13-5.1 11.1-3.3-1.7 4.4-12.1 4 2.7zm-5.7 12.3-4.8 10.5-2.4-.9 4-11.2 3.2 1.6zm-5.4 11.8-4.6 9.9-1.5-.4 3.7-10.4 2.4.9zm-5.2 11.2-4.3 9.4-.5-.1 3.5-9.7 1.3.4zm-4.9 10.8-2 4.3 1.6-4.3h.4zm112.4-.3h.2l.7 2.4-.9-2.4zm-.5-1.4-3.5-9.8 1.1-.3 2.8 10-.4.1zm-4-11.1-3.8-10.6 2-.8 3 11-1.2.4zm-4.3-12-4.1-11.4 2.8-1.5 3.3 12.1-2 .8zm-4.6-12.7-4.4-12.3 3.7-2.5 3.6 13.3-2.9 1.5zm-4.9-13.6-4.8-13.2 4.6-4 4 14.6-3.8 2.6zm-5.2-14.7-5.1-14.3 5.4-5.9 4.4 16.1-4.7 4.1zm-5.7-15.8-5.6-15.5 6.2-8.4 4.9 17.9-5.5 6zm-6.2-17.1-6-16.8 6.8-11.7 5.5 19.9-6.3 8.6zm-6.6-18.4-6.5-18.2 7.4-16 6.1 22.3-7 11.9zm-7.2-20.2-7.1-19.9 7.7-21.4 6.9 25.1-7.5 16.2zm-7.9-21.9-7.7-21.4 7.8-28.4 7.7 28.1-7.8 21.7zm-.8 2.1-7.1 19.9-7.3-15.9 6.9-25.1 7.5 21.1zm-7.8 21.7-6.6 18.2-6.8-11.7 6.1-22.3 7.3 15.8zm-7.2 20-6 16.8-6.1-8.4 5.5-19.9 6.6 11.5zm-6.6 18.4-5.6 15.5-5.4-5.8 4.9-17.9 6.1 8.2zm-6.1 16.9-5.1 14.3-4.5-3.9 4.4-16.1 5.2 5.7zm-5.6 15.7-4.8 13.2-3.7-2.5 4-14.6 4.5 3.9zm-5.3 14.7-4.4 12.3-2.8-1.5 3.6-13.2 3.6 2.4zm-4.9 13.6-4.1 11.4-1.9-.7 3.3-12 2.7 1.3zm-4.6 12.7-3.8 10.6-1-.3 3-11 1.8.7zm-4.2 11.9-3.5 9.8h-.1l2.8-10 .8.2zm-4.1 11.2-.1.2.1-.2z" style="clip-path:url(#SVGID_00000137850478428359447910000016852414861031252897_);fill:#fff" />
  </g>
  <path d="M941.7 2783.6h4.5v48.9h-4.5z" style="clip-path:url(#SVGID_00000172441829166312431850000012311716543339851145_);fill:#fff" />
  <g style="clip-path:url(#SVGID_00000172441829166312431850000012311716543339851145_)">
    <defs>
      <path id="SVGID_00000029768429342046732370000016434565548123797406_" d="M1723.5 3075.6V0H0v3075.6" />
    </defs>
    <clipPath id="SVGID_00000078750367555654609310000010910491084958382983_">
      <use xlink:href="#SVGID_00000029768429342046732370000016434565548123797406_" style="overflow:visible" />
    </clipPath>
    <path d="M1032.6 2783.1h-.5l-14.7 49.4h4.5l3.5-12.1 1.1-3.9 4.3-14.7 1.6-5.9c.1.8.9 3.7 1.6 5.9l4.2 14.7 1.1 3.9 3.5 12.1h4.7l-14.9-49.4z" style="clip-path:url(#SVGID_00000078750367555654609310000010910491084958382983_);fill:#fff" />
  </g>
  <path d="M1014.5 2783.6h-4.7l-15.6 26.1v-26.1h-4.5v48.9h4.5v-16.1l4.3-6.8 11.9 22.9h4.8l-13.9-26.8zM914.5 2787.7h16.4l-18.9 44.4v.4h25.2v-4.1h-18.8l18.9-44.4v-.4h-22.8zM958 2783.6h-4.5v48.9h20v-4.1H958zM977.9 2783.6h4.5v48.9h-4.5zM758.9 2810h14.3v-4.1h-14.3v-18.2h16.7v-4.1h-21.2v48.9h21.8v-4.1h-17.3z" style="clip-path:url(#SVGID_00000172441829166312431850000012311716543339851145_);fill:#fff" />
  <g style="clip-path:url(#SVGID_00000172441829166312431850000012311716543339851145_)">
    <defs>
      <path id="SVGID_00000070800542517441968670000013954857667573483440_" d="M1723.5 3075.6V0H0v3075.6" />
    </defs>
    <clipPath id="SVGID_00000169546923051932617670000018267499702354327225_">
      <use xlink:href="#SVGID_00000070800542517441968670000013954857667573483440_" style="overflow:visible" />
    </clipPath>
    <path d="M700.3 2783.6H693v48.9h7.3c12.7 0 20.2-9.8 20.2-23.8v-1.3c-.1-14.2-7.3-23.8-20.2-23.8m15.5 24.9c0 11.8-5.7 19.9-15.8 19.9h-2.6v-40.7h2.6c10.9 0 15.8 8 15.8 19.9v.9zM737.5 2813.3c-.9 2.9-1.9 7-1.9 7.4-.1-.6-1.1-4.6-1.9-7.4l-8.6-29.7h-4.5l14.7 49.4h.6l14.7-49.4h-4.4l-8.7 29.7zM673.7 2783.1l-14.7 49.4h4.5l3.2-10.9.3-1.1 1.1-3.9 4.3-14.7 1.6-5.9c.1.8.9 3.7 1.6 5.9l4.2 14.7 1.1 3.9 3.5 12.1h4.7l-14.8-49.4h-.6zM869.1 2806.6c4.6-1.6 7-5.3 7-10.3v-.6c0-6.8-4.4-12.1-13.2-12.1h-9v48.9h9.8c9.7 0 14.6-5.6 14.6-13.3v-.6c0-6.6-3.6-10.6-9.2-12m-10.9-19.1h4.3c6.4 0 9.1 3.5 9.1 8.5v.5c0 5-2.6 8.4-8.7 8.4h-4.8v-17.4zm15.7 31.4c0 5.7-3.2 9.6-10.4 9.6h-5.2v-19.8h4.9c7.1 0 10.7 3.9 10.7 9.6v.6zM894.3 2783.1l-14.7 49.4h4.5l3.5-12.1 1.1-3.9 4.3-14.7 1.6-5.9c.1.8.9 3.7 1.6 5.9l3.8 13.5 1.5 5.1 3.5 12.1h4.7l-14.8-49.4h-.6zM802.6 2813.2c0 2.6.2 6.3.2 6.6-.2-.5-1.8-3.5-3-5.6l-18.5-31.2h-.6v49.5h4.3V2803c0-2.3-.1-6.2-.1-6.4.2.4 1.7 3.5 2.9 5.4l18.4 31.1h.8v-49.5h-4.3v29.6z" style="clip-path:url(#SVGID_00000169546923051932617670000018267499702354327225_);fill:#fff" />
  </g>
  <path d="M811 2787.7h10.3v44.8h4.5v-44.8h10.3v-4.1H811z" style="clip-path:url(#SVGID_00000172441829166312431850000012311716543339851145_);fill:#fff" />
  <path d="M415.3 2172.4h-75.5v-124.3l75.5 1.6z" style="clip-path:url(#SVGID_00000172441829166312431850000012311716543339851145_);fill:#3c6cb3" />
  <path d="M302.1 1804.6H75.8v-131.8h226.3z" style="clip-path:url(#SVGID_00000172441829166312431850000012311716543339851145_);fill:#921b1e" />
  <path d="M75.8 1766.6h226.3v56.9H75.8z" style="clip-path:url(#SVGID_00000172441829166312431850000012311716543339851145_);fill:#deb558" />
  <path d="M75.8 1804.3h226.3v18.9H75.8z" style="clip-path:url(#SVGID_00000172441829166312431850000012311716543339851145_);fill:#2b3e79" />
  <path d="M398.5 2097.6h114.4v74.8H398.5z" style="clip-path:url(#SVGID_00000172441829166312431850000012311716543339851145_);fill:#3c6cb3" />
  <g style="clip-path:url(#SVGID_00000172441829166312431850000012311716543339851145_)">
    <defs>
      <path id="SVGID_00000172429898814206746310000014145585885667366072_" d="M1723.5 3075.6V0H0v3075.6" />
    </defs>
    <clipPath id="SVGID_00000096754596584351606790000005830105894085761977_">
      <use xlink:href="#SVGID_00000172429898814206746310000014145585885667366072_" style="overflow:visible" />
    </clipPath>
    <path d="M358.9 1980H113.8v-150.5h194.1c28.2 0 51 22.8 51 51v99.5z" style="clip-path:url(#SVGID_00000096754596584351606790000005830105894085761977_);fill:#2b3e79" />
    <path d="M20.2 1980h244.1v-150.5H71.1c-28.1 0-50.9 22.8-50.9 50.9v99.6z" style="clip-path:url(#SVGID_00000096754596584351606790000005830105894085761977_);fill:#2b3e79" />
  </g>
  <path d="M0 2036.1h39.2v301H0z" style="clip-path:url(#SVGID_00000172441829166312431850000012311716543339851145_);fill:#3c6cb3" />
  <g style="clip-path:url(#SVGID_00000172441829166312431850000012311716543339851145_)">
    <defs>
      <path id="SVGID_00000080905918290152577090000014632543324351420304_" d="M1723.5 3075.6V0H0v3075.6" />
    </defs>
    <clipPath id="SVGID_00000168077879854637144460000017691199793751398801_">
      <use xlink:href="#SVGID_00000080905918290152577090000014632543324351420304_" style="overflow:visible" />
    </clipPath>
    <path d="M39.3 1942.6v75H-55c.1-41.4 42.3-75 94.3-75" style="clip-path:url(#SVGID_00000168077879854637144460000017691199793751398801_);fill:#921b1e" />
    <path d="M-36.2 2337.1h75.4c0 20.8-16.9 37.7-37.7 37.7s-37.7-16.9-37.7-37.7" style="clip-path:url(#SVGID_00000168077879854637144460000017691199793751398801_);fill:#e5c3b6" />
    <path d="M339.9 1942.6v75h94.2c0-41.4-42.2-75-94.2-75" style="clip-path:url(#SVGID_00000168077879854637144460000017691199793751398801_);fill:#921b1e" />
    <path d="M38.4 2318.8h301.7c-.1-83.3-67.6-150.7-150.9-150.7-83.3 0-150.8 67.5-150.8 150.7" style="clip-path:url(#SVGID_00000168077879854637144460000017691199793751398801_);fill:#3c6cb3" />
  </g>
  <path d="M38.4 2318.6h301.7v75.9H38.4z" style="clip-path:url(#SVGID_00000172441829166312431850000012311716543339851145_);fill:#3c6cb3" />
  <g style="clip-path:url(#SVGID_00000172441829166312431850000012311716543339851145_)">
    <defs>
      <path id="SVGID_00000065756693227892650640000017310424462597929624_" d="M1723.5 3075.6V0H0v3075.6" />
    </defs>
    <clipPath id="SVGID_00000081630464533427911410000017848288074845038751_">
      <use xlink:href="#SVGID_00000065756693227892650640000017310424462597929624_" style="overflow:visible" />
    </clipPath>
    <path d="M302.6 2322.4c0-62.4-50.7-113.1-113.1-113.1-61.7 0-111.9 49.5-113.1 110.9H76v74.3h226.6v-72.1z" style="clip-path:url(#SVGID_00000081630464533427911410000017848288074845038751_);fill:#3c6cb3" />
  </g>
  <path d="M38.3 2394.6H340v36.8H38.3z" style="clip-path:url(#SVGID_00000172441829166312431850000012311716543339851145_);fill:#2b3e79" />
  <path d="M113.8 2427.1h150.9v457.3H113.8z" style="clip-path:url(#SVGID_00000172441829166312431850000012311716543339851145_);fill:#2b3e79" />
  <g style="clip-path:url(#SVGID_00000172441829166312431850000012311716543339851145_)">
    <defs>
      <path id="SVGID_00000111885590963205297630000006408066510236298925_" d="M1723.5 3075.6V0H0v3075.6" />
    </defs>
    <clipPath id="SVGID_00000072267698026825654460000002300286353740940185_">
      <use xlink:href="#SVGID_00000111885590963205297630000006408066510236298925_" style="overflow:visible" />
    </clipPath>
    <path d="M340.1 1998.5H39c.1 83.3 67.4 150.7 150.5 150.7s150.5-67.4 150.6-150.7" style="clip-path:url(#SVGID_00000072267698026825654460000002300286353740940185_);fill:#3c6cb3" />
  </g>
  <path d="M302.4 1810.6H76.7v-131.4h225.7z" style="clip-path:url(#SVGID_00000172441829166312431850000012311716543339851145_);fill:#921b1e" />
  <path d="M76.7 1772.7h225.8v56.7H76.7z" style="clip-path:url(#SVGID_00000172441829166312431850000012311716543339851145_);fill:#deb558" />
  <path d="M76.7 1810.4h225.8v18.8H76.7z" style="clip-path:url(#SVGID_00000172441829166312431850000012311716543339851145_);fill:#2b3e79" />
  <path d="M76.9 1942.3H340v60.3H76.9z" style="clip-path:url(#SVGID_00000172441829166312431850000012311716543339851145_);fill:#3c6cb3" />
  <path d="M39 1942.7h74.2v60.3H39z" style="clip-path:url(#SVGID_00000172441829166312431850000012311716543339851145_);fill:#3c6cb3" />
  <g style="clip-path:url(#SVGID_00000172441829166312431850000012311716543339851145_)">
    <defs>
      <path id="SVGID_00000183932614647141636080000010902191720752062891_" d="M1723.5 3075.6V0H0v3075.6" />
    </defs>
    <clipPath id="SVGID_00000088829507176123551890000003402070889652554672_">
      <use xlink:href="#SVGID_00000183932614647141636080000010902191720752062891_" style="overflow:visible" />
    </clipPath>
    <path d="M230.3 2123.9c-8.3 0-15.1-6.8-15.1-15.1s6.8-15.1 15.1-15.1 15.1 6.8 15.1 15.1c0 8.4-6.7 15.1-15.1 15.1M148.3 2123.9c-8.3 0-15.1-6.8-15.1-15.1s6.8-15.1 15.1-15.1 15.1 6.8 15.1 15.1c0 8.4-6.8 15.1-15.1 15.1" style="clip-path:url(#SVGID_00000088829507176123551890000003402070889652554672_);fill:#da1f26" />
  </g>
  <path d="M159.5 2105.9h60.3v7.5h-60.3z" style="clip-path:url(#SVGID_00000172441829166312431850000012311716543339851145_);fill:#da1f26" />
  <g style="clip-path:url(#SVGID_00000172441829166312431850000012311716543339851145_)">
    <defs>
      <path id="SVGID_00000013193608948782463650000000950768664284238261_" d="M1723.5 3075.6V0H0v3075.6" />
    </defs>
    <clipPath id="SVGID_00000147908826757988251940000008923057660927461508_">
      <use xlink:href="#SVGID_00000013193608948782463650000000950768664284238261_" style="overflow:visible" />
    </clipPath>
    <path d="M277.6 2077.7c-8.3 0-15.1-6.8-15.1-15.1s6.8-15.1 15.1-15.1 15.1 6.8 15.1 15.1c0 8.4-6.8 15.1-15.1 15.1M101.4 2077.7c-8.3 0-15.1-6.8-15.1-15.1s6.8-15.1 15.1-15.1 15.1 6.8 15.1 15.1c0 8.4-6.7 15.1-15.1 15.1" style="clip-path:url(#SVGID_00000147908826757988251940000008923057660927461508_);fill:#da1f26" />
  </g>
  <path d="M105.2 2059.7h161.9v7.5H105.2z" style="clip-path:url(#SVGID_00000172441829166312431850000012311716543339851145_);fill:#da1f26" />
  <path d="M38.3 2145H340v27.4H38.3z" style="clip-path:url(#SVGID_00000172441829166312431850000012311716543339851145_);fill:#2b3e79" />
  <g style="clip-path:url(#SVGID_00000172441829166312431850000012311716543339851145_)">
    <defs>
      <path id="SVGID_00000155855793907756520880000017791391316390587802_" d="M1723.5 3075.6V0H0v3075.6" />
    </defs>
    <clipPath id="SVGID_00000121270234093532123920000011794074860691052457_">
      <use xlink:href="#SVGID_00000155855793907756520880000017791391316390587802_" style="overflow:visible" />
    </clipPath>
    <path d="M20.2 2032.8H39v47c0 5.2-4.2 9.4-9.4 9.4s-9.4-4.2-9.4-9.4v-47zM396.8 2032.8h18.8v47c0 5.2-4.2 9.4-9.4 9.4s-9.4-4.2-9.4-9.4v-47zM367 2032.8h18.8v47c0 5.2-4.2 9.4-9.4 9.4s-9.4-4.2-9.4-9.4v-47zM340.1 2032.8h18.8v47c0 5.2-4.2 9.4-9.4 9.4s-9.4-4.2-9.4-9.4v-47z" style="clip-path:url(#SVGID_00000121270234093532123920000011794074860691052457_);fill:#deb558" />
  </g>
  <path d="M339.9 2017.6h94.2v37.6h-94.2z" style="clip-path:url(#SVGID_00000172441829166312431850000012311716543339851145_);fill:#c2972d" />
  <g style="clip-path:url(#SVGID_00000172441829166312431850000012311716543339851145_)">
    <defs>
      <path id="SVGID_00000099630373014003789810000003486334670938822558_" d="M1723.5 3075.6V0H0v3075.6" />
    </defs>
    <clipPath id="SVGID_00000152236382867378611180000016411914663453186975_">
      <use xlink:href="#SVGID_00000099630373014003789810000003486334670938822558_" style="overflow:visible" />
    </clipPath>
    <path d="M189.5 1998.4c-62.3 0-112.9-50.5-112.9-112.9v-56.1h225.8v56.1c0 62.4-50.5 112.9-112.9 112.9" style="clip-path:url(#SVGID_00000152236382867378611180000016411914663453186975_);fill:#f7ae1a" />
  </g>
  <path d="M185.4 1881.1h7.5v45.3h-7.5zM133.7 1885.9l15.1-15.1h-30.2z" style="clip-path:url(#SVGID_00000172441829166312431850000012311716543339851145_);fill:#2b3e79" />
  <g style="clip-path:url(#SVGID_00000172441829166312431850000012311716543339851145_)">
    <defs>
      <path id="SVGID_00000145759023807989043450000009296835017065083831_" d="M1723.5 3075.6V0H0v3075.6" />
    </defs>
    <clipPath id="SVGID_00000044895433519037040670000017289361701901498552_">
      <use xlink:href="#SVGID_00000145759023807989043450000009296835017065083831_" style="overflow:visible" />
    </clipPath>
    <path d="M118.6 1870.8h30.2c0-8.3-6.8-15.1-15.1-15.1s-15.1 6.8-15.1 15.1" style="clip-path:url(#SVGID_00000044895433519037040670000017289361701901498552_);fill:#2b3e79" />
  </g>
  <path d="m244.7 1885.9 15.1-15.1h-30.2z" style="clip-path:url(#SVGID_00000172441829166312431850000012311716543339851145_);fill:#2b3e79" />
  <g style="clip-path:url(#SVGID_00000172441829166312431850000012311716543339851145_)">
    <defs>
      <path id="SVGID_00000054945397873048094450000004830190707358864285_" d="M1723.5 3075.6V0H0v3075.6" />
    </defs>
    <clipPath id="SVGID_00000090279625439829626180000010749920418368721030_">
      <use xlink:href="#SVGID_00000054945397873048094450000004830190707358864285_" style="overflow:visible" />
    </clipPath>
    <path d="M229.6 1870.8h30.2c0-8.3-6.8-15.1-15.1-15.1-8.4 0-15.1 6.8-15.1 15.1" style="clip-path:url(#SVGID_00000090279625439829626180000010749920418368721030_);fill:#2b3e79" />
  </g>
  <path d="M114.9 1847.9h37.6v11.3h-37.6zM225.9 1847.9h37.6v11.3h-37.6z" style="clip-path:url(#SVGID_00000172441829166312431850000012311716543339851145_);fill:#f5f2ec" />
  <g style="clip-path:url(#SVGID_00000172441829166312431850000012311716543339851145_)">
    <defs>
      <path id="SVGID_00000079470238262679227750000016960118523319842949_" d="M1723.5 3075.6V0H0v3075.6" />
    </defs>
    <clipPath id="SVGID_00000149382631710909894020000008823942957177987732_">
      <use xlink:href="#SVGID_00000079470238262679227750000016960118523319842949_" style="overflow:visible" />
    </clipPath>
    <path d="M178.6 1926.2c-18.2-7.1-34.5-17.5-61.2-13.5-26.6 4-56.2 23.3-72.4 4.7 9.3 43 23.7 37.1 44 29.6 20.4-7.6 96.2-18.3 89.6-20.8M199 1926.2c18.2-7.1 34.5-17.5 61.2-13.5 26.6 4 56.2 23.3 72.4 4.7-9.3 43-23.7 37.1-44 29.6-20.4-7.6-96.2-18.3-89.6-20.8" style="clip-path:url(#SVGID_00000149382631710909894020000008823942957177987732_);fill:#2b3e79" />
  </g>
  <path d="M0 2017.6h39.2v37.6H0z" style="clip-path:url(#SVGID_00000172441829166312431850000012311716543339851145_);fill:#c2972d" />
  <path d="m173.3 2313.3-22-22v43.9z" style="clip-path:url(#SVGID_00000172441829166312431850000012311716543339851145_);fill:#314b9b" />
  <path d="M151.2 2310.1h60.3v7.5h-60.3z" style="clip-path:url(#SVGID_00000172441829166312431850000012311716543339851145_);fill:#314b9b" />
  <g style="clip-path:url(#SVGID_00000172441829166312431850000012311716543339851145_)">
    <defs>
      <path id="SVGID_00000158006093900559099820000017119691545802376866_" d="M1723.5 3075.6V0H0v3075.6" />
    </defs>
    <clipPath id="SVGID_00000016771380806816581580000017836360104610659735_">
      <use xlink:href="#SVGID_00000158006093900559099820000017119691545802376866_" style="overflow:visible" />
    </clipPath>
    <path d="M151.3 2335.3v-43.9c-12.1 0-22 9.8-22 22 .1 12 9.9 21.8 22 21.9" style="clip-path:url(#SVGID_00000016771380806816581580000017836360104610659735_);fill:#314b9b" />
  </g>
  <path d="m163.3 2313.3-13.1-13.1v26.1z" style="clip-path:url(#SVGID_00000172441829166312431850000012311716543339851145_);fill:#3c6cb3" />
  <g style="clip-path:url(#SVGID_00000172441829166312431850000012311716543339851145_)">
    <defs>
      <path id="SVGID_00000120553483578830444880000012220115514124486030_" d="M1723.5 3075.6V0H0v3075.6" />
    </defs>
    <clipPath id="SVGID_00000021103750497204955020000001669489882462491554_">
      <use xlink:href="#SVGID_00000120553483578830444880000012220115514124486030_" style="overflow:visible" />
    </clipPath>
    <path d="M150.2 2326.3v-26.1c-7.2 0-13 5.8-13 13.1 0 7.2 5.8 13 13 13" style="clip-path:url(#SVGID_00000021103750497204955020000001669489882462491554_);fill:#3c6cb3" />
  </g>
  <path d="m206.3 2313.3 22 22v-44z" style="clip-path:url(#SVGID_00000172441829166312431850000012311716543339851145_);fill:#314b9b" />
  <g style="clip-path:url(#SVGID_00000172441829166312431850000012311716543339851145_)">
    <defs>
      <path id="SVGID_00000086676554346599012350000018000865010348883122_" d="M1723.5 3075.6V0H0v3075.6" />
    </defs>
    <clipPath id="SVGID_00000117649377823218060730000011777647565877643455_">
      <use xlink:href="#SVGID_00000086676554346599012350000018000865010348883122_" style="overflow:visible" />
    </clipPath>
    <path d="M228.3 2291.3v43.9c12.1 0 22-9.8 22-22-.1-12.1-9.9-21.9-22-21.9" style="clip-path:url(#SVGID_00000117649377823218060730000011777647565877643455_);fill:#314b9b" />
  </g>
  <path d="m216.3 2313.3 13.1 13v-26.1z" style="clip-path:url(#SVGID_00000172441829166312431850000012311716543339851145_);fill:#3c6cb3" />
  <g style="clip-path:url(#SVGID_00000172441829166312431850000012311716543339851145_)">
    <defs>
      <path id="SVGID_00000134963424802523398130000005171618989475025548_" d="M1723.5 3075.6V0H0v3075.6" />
    </defs>
    <clipPath id="SVGID_00000167396754264869793930000009958887241383097227_">
      <use xlink:href="#SVGID_00000134963424802523398130000005171618989475025548_" style="overflow:visible" />
    </clipPath>
    <path d="M229.4 2300.2v26.1c7.2 0 13-5.8 13-13.1 0-7.1-5.8-13-13-13" style="clip-path:url(#SVGID_00000167396754264869793930000009958887241383097227_);fill:#3c6cb3" />
  </g>
  <path d="M151.2 2241.3h60.3v7.5h-60.3z" style="clip-path:url(#SVGID_00000172441829166312431850000012311716543339851145_);fill:#314b9b" />
  <path d="m173.3 2244.5-22-22v43.9z" style="clip-path:url(#SVGID_00000172441829166312431850000012311716543339851145_);fill:#314b9b" />
  <g style="clip-path:url(#SVGID_00000172441829166312431850000012311716543339851145_)">
    <defs>
      <path id="SVGID_00000023969517327499285010000015491281227124498832_" d="M1723.5 3075.6V0H0v3075.6" />
    </defs>
    <clipPath id="SVGID_00000123443077106189198440000004911928741346117005_">
      <use xlink:href="#SVGID_00000023969517327499285010000015491281227124498832_" style="overflow:visible" />
    </clipPath>
    <path d="M151.3 2266.4v-43.9c-12.1 0-22 9.8-22 22 .1 12.1 9.9 21.9 22 21.9" style="clip-path:url(#SVGID_00000123443077106189198440000004911928741346117005_);fill:#314b9b" />
  </g>
  <path d="m163.3 2244.5-13.1-13.1v26.1z" style="clip-path:url(#SVGID_00000172441829166312431850000012311716543339851145_);fill:#3c6cb3" />
  <g style="clip-path:url(#SVGID_00000172441829166312431850000012311716543339851145_)">
    <defs>
      <path id="SVGID_00000051373346197233570440000007646825810432781728_" d="M1723.5 3075.6V0H0v3075.6" />
    </defs>
    <clipPath id="SVGID_00000159427778335449679030000010340911786920678028_">
      <use xlink:href="#SVGID_00000051373346197233570440000007646825810432781728_" style="overflow:visible" />
    </clipPath>
    <path d="M150.2 2257.5v-26.1c-7.2 0-13 5.8-13 13.1 0 7.2 5.8 13 13 13" style="clip-path:url(#SVGID_00000159427778335449679030000010340911786920678028_);fill:#3c6cb3" />
  </g>
  <path d="m206.3 2244.5 22 21.9v-43.9z" style="clip-path:url(#SVGID_00000172441829166312431850000012311716543339851145_);fill:#314b9b" />
  <g style="clip-path:url(#SVGID_00000172441829166312431850000012311716543339851145_)">
    <defs>
      <path id="SVGID_00000085968007855924422520000002824187192071079331_" d="M1723.5 3075.6V0H0v3075.6" />
    </defs>
    <clipPath id="SVGID_00000089556129317709355400000005177756203380262838_">
      <use xlink:href="#SVGID_00000085968007855924422520000002824187192071079331_" style="overflow:visible" />
    </clipPath>
    <path d="M228.3 2222.5v43.9c12.1 0 22-9.8 22-22-.1-12.1-9.9-21.9-22-21.9" style="clip-path:url(#SVGID_00000089556129317709355400000005177756203380262838_);fill:#314b9b" />
  </g>
  <path d="m216.3 2244.5 13.1 13v-26.1z" style="clip-path:url(#SVGID_00000172441829166312431850000012311716543339851145_);fill:#3c6cb3" />
  <g style="clip-path:url(#SVGID_00000172441829166312431850000012311716543339851145_)">
    <defs>
      <path id="SVGID_00000171692081111733691360000003180000169688225412_" d="M1723.5 3075.6V0H0v3075.6" />
    </defs>
    <clipPath id="SVGID_00000138534110535200073780000006129191399120356282_">
      <use xlink:href="#SVGID_00000171692081111733691360000003180000169688225412_" style="overflow:visible" />
    </clipPath>
    <path d="M229.4 2231.4v26.1c7.2 0 13-5.8 13-13.1 0-7.1-5.8-13-13-13" style="clip-path:url(#SVGID_00000138534110535200073780000006129191399120356282_);fill:#3c6cb3" />
    <path d="M208.6 1660.2c0-10.4-8.4-18.8-18.8-18.8s-18.8 8.4-18.8 18.8 8.4 18.8 18.8 18.8 18.8-8.4 18.8-18.8" style="clip-path:url(#SVGID_00000138534110535200073780000006129191399120356282_);fill:#e8bc59" />
    <path d="M589 2142.9c0 14.8-12 26.8-26.8 26.8s-26.8-12-26.8-26.8 12-26.8 26.8-26.8 26.8 12 26.8 26.8" style="clip-path:url(#SVGID_00000138534110535200073780000006129191399120356282_);fill:#f7ae1a" />
    <path d="M512.9 2148.3h49.7v-49.7c-27.5 0-49.7 22.3-49.7 49.7" style="clip-path:url(#SVGID_00000138534110535200073780000006129191399120356282_);fill:#f7ae1a" />
    <path d="M512.9 2172.4v-24.2h86.5c6.7 0 12.1 5.4 12.1 12.1 0 6.7-5.4 12.1-12.1 12.1h-86.5zM562.6 2122.8v-24.2h70.5c6.7 0 12.1 5.4 12.1 12.1 0 6.7-5.4 12.1-12.1 12.1h-70.5z" style="clip-path:url(#SVGID_00000138534110535200073780000006129191399120356282_);fill:#f7ae1a" />
    <path d="M853.2 2228.8c97.1 0 175.7-82.5 175.7-184.3 0-101.8-78.7-184.3-175.7-184.3s-175.7 82.5-175.7 184.3c0 101.8 78.7 184.3 175.7 184.3" style="clip-path:url(#SVGID_00000138534110535200073780000006129191399120356282_);fill:#fff" />
    <ellipse cx="853.2" cy="2044.6" rx="175.7" ry="184.3" style="clip-path:url(#SVGID_00000138534110535200073780000006129191399120356282_);fill:none;stroke:#386bb3;stroke-width:10" />
  </g>
  <path d="M197.6 2749.2H21.8v326.4h351.5v-326.4z" style="clip-path:url(#SVGID_00000172441829166312431850000012311716543339851145_);fill:#f7ae1a" />
  <path d="M162.4 2737.4h70.3v338.1h-70.3z" style="clip-path:url(#SVGID_00000172441829166312431850000012311716543339851145_);fill:#da1f26" />
  <path d="M21.8 2873.5h351.5v68H21.8z" style="clip-path:url(#SVGID_00000172441829166312431850000012311716543339851145_);fill:#da1f26" />
  <g style="clip-path:url(#SVGID_00000172441829166312431850000012311716543339851145_)">
    <defs>
      <path id="SVGID_00000160897536564978564070000016570522709098108571_" d="M1723.5 3075.6V0H0v3075.6" />
    </defs>
    <clipPath id="SVGID_00000158713028515958652130000016647300188336125330_">
      <use xlink:href="#SVGID_00000160897536564978564070000016570522709098108571_" style="overflow:visible" />
    </clipPath>
    <path d="M96.7 2838.9h-1.4v-101.5h105c0 56-45.6 101.5-103.6 101.5" style="clip-path:url(#SVGID_00000158713028515958652130000016647300188336125330_);fill:#b62025" />
  </g>
  <path d="M95.4 2635.8v101.5h104.9zM200.3 2737.3h105v-101.5z" style="clip-path:url(#SVGID_00000172441829166312431850000012311716543339851145_);fill:#fff" />
  <g style="clip-path:url(#SVGID_00000172441829166312431850000012311716543339851145_)">
    <defs>
      <path id="SVGID_00000121237209758237034160000002803151397119507591_" d="M1723.5 3075.6V0H0v3075.6" />
    </defs>
    <clipPath id="SVGID_00000047037611038341641850000006529545011866159253_">
      <use xlink:href="#SVGID_00000121237209758237034160000002803151397119507591_" style="overflow:visible" />
    </clipPath>
    <path d="M302.9 2837.7h1.4v-101.5h-105c0 56 45.7 101.5 103.6 101.5" style="clip-path:url(#SVGID_00000047037611038341641850000006529545011866159253_);fill:#b62025" />
    <path d="M172.2 1955.9c3.2 4.9 9.5 8.3 17 8.3s13.8-3.4 17-8.3h-34z" style="clip-path:url(#SVGID_00000047037611038341641850000006529545011866159253_);fill:#2b3e79" />
  </g>
  <g style="clip-path:url(#SVGID_00000172441829166312431850000012311716543339851145_)">
    <path d="M549.3 2936.6c-.1.3-.4.3-.5 0l-12.3-29.6h8.2l5.5 13.7 6.3-14.3c.1-.2.3-.2.3 0l6.6 14.3 5.2-13.7h7.8l-12.1 29.6c-.1.3-.3.3-.5 0l-7.3-15.7-7.2 15.7zM590 2936.6c-.1.3-.4.3-.5 0l-12.3-29.6h8.2l5.5 13.7 6.3-14.3c.1-.2.3-.2.3 0l6.6 14.3 5.2-13.7h7.8l-12.1 29.6c-.1.3-.3.3-.5 0l-7.3-15.7-7.2 15.7zM630.6 2936.6c-.1.3-.4.3-.5 0l-12.3-29.6h8.2l5.5 13.7 6.3-14.3c.1-.2.3-.2.3 0l6.6 14.3 5.2-13.7h7.8l-12.1 29.6c-.1.3-.3.3-.5 0l-7.3-15.7-7.2 15.7zM653.1 2932.4c0-2.5 2-4.2 4.3-4.2 2.2 0 4.3 1.7 4.3 4.2s-2.1 4.2-4.3 4.2c-2.3 0-4.3-1.7-4.3-4.2zM682.9 2932.7h-10.2l-1.5 3.5h-7.7l14.2-29.8c.1-.3.4-.3.5 0l14.2 29.8h-8.1l-1.4-3.5zm-7.8-5.7h5.3l-2.7-6.2-2.6 6.2zM695.2 2907h11.3c8.4 0 14.8 5.5 14.8 14.6s-6.4 14.6-14.8 14.6h-11.3V2907zm10.5 22.6c4.7 0 7.7-3.1 7.7-8s-2.9-8-7.7-8h-2.6v16h2.6zM734.6 2936.5c-.1.3-.4.3-.5 0l-13.8-29.5h8.3l6 13.6 5.8-13.6h8l-13.8 29.5zM751.1 2907h20.5v6.6H759v4.8h10.6v6.2H759v5h13.3v6.6h-21.1V2907zM783.4 2921.6v14.6H776v-29.6c0-.3.1-.5.6-.1l18.4 15.1V2907h7.4v29.7c0 .3-.1.5-.6.1l-18.4-15.2zM813.6 2913.6h-7.7v-6.6h23.3v6.6h-7.7v22.7h-7.8v-22.7zM832.7 2907h12.7c5.8 0 9.5 2.7 9.5 7.6 0 3.5-1.7 5.4-4 6.3 2.7.8 5.3 2.8 5.3 6.9 0 5.3-3.9 8.5-11.2 8.5h-12.3V2907zm11.6 11.4c2.1 0 3-1 3-2.6s-.7-2.7-2.9-2.7h-4.1v5.3h4zm.7 11.7c2.5 0 3.4-1.2 3.4-3.1 0-1.9-.9-3-3.4-3h-4.7v6.1h4.7zM875.9 2932.7h-10.2l-1.5 3.5h-7.7l14.2-29.8c.1-.3.4-.3.5 0l14.2 29.8h-8.1l-1.4-3.5zm-7.8-5.7h5.3l-2.7-6.2-2.6 6.2zM886.6 2935.8l12.9-22.2h-10.8v-6.6h22.7c.3 0 .3.1.1.4l-12.9 22.2h11.9v6.6h-23.9c-.2 0-.2-.1 0-.4zM915.2 2907h7.8v29.2h-7.8V2907zM928.2 2907h7.8v22.7h12.4v6.6h-20.3V2907zM952.3 2907h7.8v29.2h-7.8V2907zM982.2 2907h8.5l-9.7 12.7 10.9 16.6h-9.2l-7-10.6-2.5 3v7.6h-7.8V2907h7.8v12.1l9-12.1zM1012 2932.7h-10.2l-1.5 3.5h-7.7l14.2-29.8c.1-.3.4-.3.5 0l14.2 29.8h-8.1l-1.4-3.5zm-7.7-5.7h5.3l-2.7-6.2-2.6 6.2zM1023.6 2932.4c0-2.5 2-4.2 4.3-4.2 2.2 0 4.3 1.7 4.3 4.2s-2.1 4.2-4.3 4.2c-2.3 0-4.3-1.7-4.3-4.2zM1054.2 2907h7.8v29.2h-7.8v-11.4h-10.1v11.4h-7.8V2907h7.8v11.2h10.1V2907zM1066.8 2924.9V2907h7.8v17.8c0 3.3 1.5 5.2 4.9 5.2 3.3 0 4.9-1.9 4.9-5.2V2907h7.8v17.9c0 7.9-5.4 11.7-12.7 11.7-7.3 0-12.7-3.8-12.7-11.7zM1105.9 2907h7.1l-12.3 29.2h-7.1l12.3-29.2zM1116.4 2907h20.5v6.6h-12.7v4.8h10.6v6.2h-10.6v5h13.3v6.6h-21.1V2907zM1148.6 2921.6v14.6h-7.4v-29.6c0-.3.1-.5.6-.1l18.4 15.1V2907h7.4v29.7c0 .3-.1.5-.6.1l-18.4-15.2z" class="st43" />
  </g>
  <g style="clip-path:url(#SVGID_00000172441829166312431850000012311716543339851145_)">
    <path d="m533.2 376.6 24.2-18.1c6 7.5 13.5 13.5 26 13.5 9.9 0 15.7-2.9 15.7-9.9 0-5.3-4-7.9-12.3-10.6l-14.6-4.9c-18.1-6-30.9-17-30.9-37.5 0-24.5 20.3-37.2 42.5-37.2 22 0 35.1 7.9 42.5 16.5l-19 20c-5.1-5.3-11.7-9-21.6-9-8.1 0-12.1 3.7-12.1 8.6 0 4.8 2.7 7.1 8.8 9.2l16.5 5.5c24.9 8.2 33.3 20.1 33.3 37.7 0 22.9-14.3 39.4-47.2 39.4-28.2-.1-44.1-12.9-51.8-23.2zM680.6 397.9h-33.3V273.4h50.3c31.7 0 49.2 19.2 49.2 44.7s-17.6 44.1-49.2 44.1h-17v35.7zm15.3-63.5c11.3 0 17.4-6 17.4-16.3s-6-16.5-17.4-16.5h-15.4v32.8h15.4zM762.2 273.4h87.3v28h-54v20.5h45v26.5h-45v21.4h56.6v28h-89.9V273.4zM925.3 399.5c-35 0-64.8-26.4-64.8-63.9s29.7-63.7 63-63.7c26.9 0 43.4 11.3 53.8 26.7l-25.1 17c-4.8-7.3-12.4-14.8-28.2-14.8-18.3 0-29.5 15.2-29.5 34.8 0 19.6 11.5 35 30.6 35 16.1 0 24-7.3 29.3-17.2l25.6 16.5c-12.3 20.7-29.5 29.6-54.7 29.6zM993.5 273.4h33.3v124.5h-33.3V273.4zM1121.3 382.9h-43.4l-6.2 15h-32.6l60.6-126.7c.5-1.3 1.6-1.3 2.2 0l60.4 126.7h-34.4l-6.6-15zm-33.1-24.2h22.5l-11.3-26.4-11.2 26.4zM1173.8 273.4h33.3v96.5h52.9v28h-86.2V273.4z" class="st43" />
  </g>
  <g style="clip-path:url(#SVGID_00000172441829166312431850000012311716543339851145_)">
    <path d="m357.5 596.3 24.2-18.1c6 7.5 13.5 13.5 26 13.5 9.9 0 15.7-2.9 15.7-9.9 0-5.3-4-7.9-12.3-10.6l-14.6-4.9c-18.1-6-30.9-17-30.9-37.5 0-24.5 20.3-37.2 42.5-37.2 22 0 35.1 7.9 42.5 16.5l-19 20c-5.1-5.3-11.7-9-21.6-9-8.1 0-12.1 3.7-12.1 8.6 0 4.8 2.7 7.1 8.8 9.2l16.5 5.5c24.9 8.2 33.3 20.1 33.3 37.7 0 22.9-14.3 39.4-47.2 39.4-28.2-.2-44.1-13-51.8-23.2zM471.5 493.1h87.3v28h-54v20.5h45v26.5h-45v21.4h56.6v28h-89.9V493.1zM577.5 493.1h33.3v96.5h52.9v28h-86.2V493.1zM679.1 493.1h84.6v28h-51.2v25.3h45.2v28h-45.2v43.2h-33.3V493.1zM780.9 493.1h33.3v124.5h-33.3V493.1zM836.5 493.1h87.3v28h-54v20.5h45v26.5h-45v21.4h56.6v28h-89.9V493.1zM976.7 596.3l24.2-18.1c6 7.5 13.5 13.5 26 13.5 9.9 0 15.7-2.9 15.7-9.9 0-5.3-4-7.9-12.3-10.6l-14.6-4.9c-18.1-6-30.9-17-30.9-37.5 0-24.5 20.3-37.2 42.5-37.2 22 0 35.1 7.9 42.5 16.5l-19 20c-5.1-5.3-11.7-9-21.6-9-8.1 0-12.1 3.7-12.1 8.6 0 4.8 2.7 7.1 8.8 9.2l16.5 5.5c24.9 8.2 33.3 20.1 33.3 37.7 0 22.9-14.3 39.4-47.2 39.4-28.2-.2-44.1-13-51.8-23.2zM1124 617.5h-33.3V493.1h50.3c31.7 0 49.2 19.2 49.2 44.7s-17.6 44.1-49.2 44.1h-17v35.6zm15.4-63.5c11.3 0 17.4-6 17.4-16.3s-6-16.5-17.4-16.5H1124V554h15.4zM1200.5 555.3c0-37.5 30.9-63.7 66.8-63.7s66.8 26.2 66.8 63.7-30.9 63.9-66.8 63.9c-35.8 0-66.8-26.4-66.8-63.9zm99.6 0c0-19.6-11.9-34.8-32.8-34.8s-32.8 15.2-32.8 34.8c0 19.6 11.9 35 32.8 35s32.8-15.4 32.8-35zM1369.8 521.1h-32.9v-28h99.2v28h-32.9v96.5h-33.3v-96.5z" class="st43" />
  </g>
  <path d="m1347.9 2909.4 31.6 166.2h36.3v-166.2zM1653.4 3012.9l11 62.7h23.1v-62.7z" style="clip-path:url(#SVGID_00000172441829166312431850000012311716543339851145_);fill:#e09726" />
  <path d="M1653.5 2944h33.9v69h-33.9z" style="clip-path:url(#SVGID_00000172441829166312431850000012311716543339851145_);fill:#edd23b" />
  <g style="clip-path:url(#SVGID_00000172441829166312431850000012311716543339851145_)">
    <defs>
      <path id="SVGID_00000152240554339036624280000014381815735374392219_" d="M1723.5 3075.6V0H0v3075.6" />
    </defs>
    <clipPath id="SVGID_00000098942815797328177110000005446835343599623589_">
      <use xlink:href="#SVGID_00000152240554339036624280000014381815735374392219_" style="overflow:visible" />
    </clipPath>
    <path d="M1687.5 2806.3h-34v-35c18.7.1 33.9 15.7 34 35M1551.6 2909.4h101.9V3013c-56.1 0-101.7-46.3-101.9-103.6M1347.9 2702.3v207.1c-56.3 0-101.9-46.4-101.9-103.6s45.6-103.4 101.9-103.5" style="clip-path:url(#SVGID_00000098942815797328177110000005446835343599623589_);fill:#e09726" />
  </g>
  <path d="M1347.9 2805.9h305.6v103.6h-305.6zM1279.8 2667.8h68.1v34.9h-68.1z" style="clip-path:url(#SVGID_00000172441829166312431850000012311716543339851145_);fill:#edd23b" />
  <path d="m1347.9 2667.8-34-34.5h34v34.5M1314 2633.3l-34.1-34.5h34v34.5" style="clip-path:url(#SVGID_00000172441829166312431850000012311716543339851145_);fill:#e09726" />
  <g style="clip-path:url(#SVGID_00000172441829166312431850000012311716543339851145_)">
    <defs>
      <path id="SVGID_00000096764544787809685990000016332652408928956310_" d="M1723.5 3075.6V0H0v3075.6" />
    </defs>
    <clipPath id="SVGID_00000123407220831390536650000000542720914856437689_">
      <use xlink:href="#SVGID_00000096764544787809685990000016332652408928956310_" style="overflow:visible" />
    </clipPath>
    <path d="M1347.9 2667.8h67.9c0 19.3-15.2 34.9-33.9 34.9s-34-15.6-34-34.9" style="clip-path:url(#SVGID_00000123407220831390536650000000542720914856437689_);fill:#e09726" />
  </g>
  <path d="M1518 2598.6h101.9v207.1h-203.7v-207.1z" style="clip-path:url(#SVGID_00000172441829166312431850000012311716543339851145_);fill:#f7ae1a" />
  <path d="M1497.7 2598.6h40.8v207.1h-40.8z" style="clip-path:url(#SVGID_00000172441829166312431850000012311716543339851145_);fill:#386bb3" />
  <path d="M1416.2 2681.5H1620v41.4h-203.8z" style="clip-path:url(#SVGID_00000172441829166312431850000012311716543339851145_);fill:#386bb3" />
  <g style="clip-path:url(#SVGID_00000172441829166312431850000012311716543339851145_)">
    <defs>
      <path id="SVGID_00000111186347608697091900000008185468949469692350_" d="M1723.5 3075.6V0H0v3075.6" />
    </defs>
    <clipPath id="SVGID_00000174577025879789417930000000492601714131718547_">
      <use xlink:href="#SVGID_00000111186347608697091900000008185468949469692350_" style="overflow:visible" />
    </clipPath>
    <path d="M1455.7 2659.8h-.8V2597h61.8c0 34.7-26.8 62.8-61 62.8M1577.8 2659.8h.8V2597h-61.8c0 34.7 26.8 62.8 61 62.8" style="clip-path:url(#SVGID_00000174577025879789417930000000492601714131718547_);fill:#3e92d0" />
  </g>
  <path d="M1578.6 2534.2v62.8h-61.9z" style="clip-path:url(#SVGID_00000172441829166312431850000012311716543339851145_);fill:#3259a2" />
  <path d="M1516.7 2597h-61.8v-62.8z" style="clip-path:url(#SVGID_00000172441829166312431850000012311716543339851145_);fill:#3259a2" />
  <g style="clip-path:url(#SVGID_00000172441829166312431850000012311716543339851145_)">
    <defs>
      <path id="SVGID_00000095322101643342916140000006244590072464553356_" d="M1723.5 3075.6V0H0v3075.6" />
    </defs>
    <clipPath id="SVGID_00000136382185524048055980000007608833438913336505_">
      <use xlink:href="#SVGID_00000095322101643342916140000006244590072464553356_" style="overflow:visible" />
    </clipPath>
    <path d="M205.8 582.6h.2-.5c-14.5-.3-26.1-12.2-26.1-26.8 0 14.6-11.6 26.5-26.1 26.8h-.5.2-.2.5c14.5.3 26.1 12.2 26.1 26.8 0-14.6 11.6-26.5 26.1-26.8h.5-.2zM160.7 258.8h.2-.5c-14.5-.3-26.1-12.2-26.1-26.8 0 14.6-11.6 26.5-26.1 26.8h-.5.2-.2.5c14.5.3 26.1 12.2 26.1 26.8 0-14.6 11.6-26.5 26.1-26.8h.5-.2zM1077.9 169.9h.2-.5c-14.5-.3-26.1-12.2-26.1-26.8 0 14.6-11.6 26.5-26.1 26.8h-.5.2-.2.5c14.5.3 26.1 12.2 26.1 26.8 0-14.6 11.6-26.5 26.1-26.8h.5-.2zM1328.6 272.4h.2-.5c-14.5-.3-26.1-12.2-26.1-26.8 0 14.6-11.6 26.5-26.1 26.8h-.5.2-.2.5c14.5.3 26.1 12.2 26.1 26.8 0-14.6 11.6-26.5 26.1-26.8h.5-.2zM481.1 143h.2-.5c-14.5-.3-26.1-12.2-26.1-26.8 0 14.6-11.6 26.5-26.1 26.8h-.5.2-.2.5c14.5.3 26.1 12.2 26.1 26.8 0-14.6 11.6-26.5 26.1-26.8h.5-.2zM240 396.3h.2-.5c-14.5-.3-26.1-12.2-26.1-26.8 0 14.6-11.6 26.5-26.1 26.8h-.5.2-.2.5c14.5.3 26.1 12.2 26.1 26.8 0-14.6 11.6-26.5 26.1-26.8h.5-.2zM1221.1 697.3v.2-.5c.3-14.5 12.2-26.1 26.8-26.1-14.6 0-26.5-11.6-26.8-26.1v-.5.2-.2.5c-.3 14.5-12.2 26.1-26.8 26.1 14.6 0 26.5 11.6 26.8 26.1v.5-.2zM1544.9 652.2v.2-.5c.3-14.5 12.2-26.1 26.8-26.1-14.6 0-26.5-11.6-26.8-26.1v-.5.2-.2.5c-.3 14.5-12.2 26.1-26.8 26.1 14.6 0 26.5 11.6 26.8 26.1v.5-.2zM1633.8 1569.4v.2-.5c.3-14.5 12.2-26.1 26.8-26.1-14.6 0-26.5-11.6-26.8-26.1v-.5.2-.2.5c-.3 14.5-12.2 26.1-26.8 26.1 14.6 0 26.5 11.6 26.8 26.1v.5-.2zM1531.3 1820.1v.2-.5c.3-14.5 12.2-26.1 26.8-26.1-14.6 0-26.5-11.6-26.8-26.1v-.5.2-.2.5c-.3 14.5-12.2 26.1-26.8 26.1 14.6 0 26.5 11.6 26.8 26.1v.5-.2zM1272.8 2097.5v.2-.5c.3-14.5 12.2-26.1 26.8-26.1-14.6 0-26.5-11.6-26.8-26.1v-.5.2-.2.5c-.3 14.5-12.2 26.1-26.8 26.1 14.6 0 26.5 11.6 26.8 26.1v.5-.2zM1660.6 972.6v.2-.5c.3-14.5 12.2-26.1 26.8-26.1-14.6 0-26.5-11.6-26.8-26.1v-.5.2-.2.5c-.3 14.5-12.2 26.1-26.8 26.1 14.6 0 26.5 11.6 26.8 26.1v.5-.2zM1439.9 903.3v.2-.5c.3-14.5 12.2-26.1 26.8-26.1-14.6 0-26.5-11.6-26.8-26.1v-.5.2-.2.5c-.3 14.5-12.2 26.1-26.8 26.1 14.6 0 26.5 11.6 26.8 26.1v.5-.2zM973.4 2503.2h-.2.5c14.5.3 26.1 12.2 26.1 26.8 0-14.6 11.6-26.5 26.1-26.8h.5-.2.2-.5c-14.5-.3-26.1-12.2-26.1-26.8 0 14.6-11.6 26.5-26.1 26.8h-.5.2zM722.7 2400.7h-.2.5c14.5.3 26.1 12.2 26.1 26.8 0-14.6 11.6-26.5 26.1-26.8h.5-.2.2-.5c-14.5-.3-26.1-12.2-26.1-26.8 0 14.6-11.6 26.5-26.1 26.8h-.5.2zM506.5 1937.4h-.2.5c14.5.3 26.1 12.2 26.1 26.8 0-14.6 11.6-26.5 26.1-26.8h.5-.2.2-.5c-14.5-.3-26.1-12.2-26.1-26.8 0 14.6-11.6 26.5-26.1 26.8h-.5.2zM1258.8 2342.7h-.2.5c14.5.3 26.1 12.2 26.1 26.8 0-14.6 11.6-26.5 26.1-26.8h.5-.2.2-.5c-14.5-.3-26.1-12.2-26.1-26.8 0 14.6-11.6 26.5-26.1 26.8h-.5.2zM1639.4 2309.3h-.2.5c14.5.3 26.1 12.2 26.1 26.8 0-14.6 11.6-26.5 26.1-26.8h.5-.2.2-.5c-14.5-.3-26.1-12.2-26.1-26.8 0 14.6-11.6 26.5-26.1 26.8h-.5.2zM120.4 963.5v.2-.5c.3-14.5 12.2-26.1 26.8-26.1-14.6 0-26.5-11.6-26.8-26.1v-.5.2-.2.5c-.3 14.5-12.2 26.1-26.8 26.1 14.6 0 26.5 11.6 26.8 26.1v.5-.2zM199 1328.5v.2-.5c.3-14.5 12.2-26.1 26.8-26.1-14.6 0-26.5-11.6-26.8-26.1v-.5.2-.2.5c-.3 14.5-12.2 26.1-26.8 26.1 14.6 0 26.5 11.6 26.8 26.1v.5-.2zM650.7 807.6v.2-.5c.3-14.5 12.2-26.1 26.8-26.1-14.6 0-26.5-11.6-26.8-26.1v-.5.2-.2.5c-.3 14.5-12.2 26.1-26.8 26.1 14.6 0 26.5 11.6 26.8 26.1v.5-.2zM399.7 362.8h.2-.5c-14.5-.3-26.1-12.2-26.1-26.8 0 14.6-11.6 26.5-26.1 26.8h-.5.2-.2.5c14.5.3 26.1 12.2 26.1 26.8 0-14.6 11.6-26.5 26.1-26.8h.5-.2zM1591.5 281.5v.2-.5c.3-14.5 12.2-26.1 26.8-26.1-14.6 0-26.5-11.6-26.8-26.1v-.5.2-.2.5c-.3 14.5-12.2 26.1-26.8 26.1 14.6 0 26.5 11.6 26.8 26.1v.5-.2z" style="clip-path:url(#SVGID_00000136382185524048055980000007608833438913336505_);fill:#fff" />
    <path d="M778.8 1997c-4.1 0-7.4 3.3-7.4 7.4v96.8c0 4.1 3.3 7.4 7.4 7.4h149c4.1 0 7.4-3.3 7.4-7.4v-96.8c0-4.1-3.3-7.4-7.4-7.4h-41.5c-2.9 0-5.6-1.7-6.8-4.3l-5-10.8c-.4-.9-1.3-1.5-2.3-1.5h-37.9c-1 0-1.9.6-2.3 1.4l-5 10.8c-1.2 2.7-3.9 4.4-6.8 4.3h-41.4zm148.9 116.7h-149c-6.9 0-12.4-5.6-12.4-12.4v-96.8c0-6.9 5.6-12.4 12.4-12.4h41.5c1 0 1.9-.6 2.3-1.4l5-10.8c1.2-2.7 3.9-4.4 6.8-4.3h37.9c2.9 0 5.6 1.7 6.8 4.3l5 10.8c.4.9 1.3 1.5 2.3 1.5h41.5c6.9 0 12.4 5.6 12.4 12.4v96.8c-.1 6.8-5.6 12.3-12.5 12.3" style="clip-path:url(#SVGID_00000136382185524048055980000007608833438913336505_);fill:#386bb3" />
    <path d="M790.7 1992.1h15.9v-9.9h-15.9v9.9zm18.3 4.9h-20.9c-1.4 0-2.5-1.1-2.5-2.5v-12.9c0-2.5 2-4.4 4.4-4.4h16.9c2.5 0 4.4 2 4.4 4.4v12.9c.2 1.4-.9 2.5-2.3 2.5M821.1 2081.4h-52.3c-1.4 0-2.5-1.1-2.5-2.5v-57.1c0-1.4 1.1-2.5 2.5-2.5h52.3c1.4 0 2.5 1.1 2.5 2.5s-1.1 2.5-2.5 2.5h-49.8v52.1h49.8c1.4 0 2.5 1.1 2.5 2.5s-1.1 2.5-2.5 2.5M937.6 2081.4h-52.3c-1.4 0-2.5-1.1-2.5-2.5s1.1-2.5 2.5-2.5h49.8v-52.1h-49.8c-1.4 0-2.5-1.1-2.5-2.5s1.1-2.5 2.5-2.5h52.3c1.4 0 2.5 1.1 2.5 2.5v57.1c0 1.4-1.1 2.5-2.5 2.5" style="clip-path:url(#SVGID_00000136382185524048055980000007608833438913336505_);fill:#386bb3" />
    <path d="M853.2 2009.8c-22.4 0-40.5 18.1-40.5 40.5s18.1 40.5 40.5 40.5 40.5-18.1 40.5-40.4c0-22.4-18.1-40.5-40.5-40.6m0 86.1c-25.1 0-45.5-20.3-45.5-45.5 0-25.1 20.3-45.5 45.5-45.5 25.1 0 45.5 20.3 45.5 45.5 0 25.1-20.4 45.5-45.5 45.5" style="clip-path:url(#SVGID_00000136382185524048055980000007608833438913336505_);fill:#386bb3" />
    <path d="M853.2 2027.2c-12.8 0-23.2 10.4-23.3 23.2 0 12.8 10.4 23.2 23.2 23.3 12.8 0 23.2-10.4 23.3-23.2 0-12.9-10.4-23.3-23.2-23.3m0 51.4c-15.6 0-28.2-12.6-28.2-28.2s12.6-28.2 28.2-28.2 28.2 12.6 28.2 28.2-12.6 28.2-28.2 28.2" style="clip-path:url(#SVGID_00000136382185524048055980000007608833438913336505_);fill:#386bb3" />
  </g>
</svg>
